<svg width="147" height="40" viewBox="0 0 147 40" fill="none" xmlns="http://www.w3.org/2000/svg">
<path d="M13.4681 40C11.5624 40 10.0965 39.5524 9.07034 38.6573C8.08084 37.7622 7.5861 36.7552 7.5861 35.6364C7.5861 34.6667 7.93425 33.8275 8.63056 33.1189C9.32687 32.4103 10.353 32.0559 11.709 32.0559C12.1854 32.0559 12.7351 32.1119 13.3581 32.2238C14.0178 32.2984 14.5125 32.3543 14.8424 32.3916C14.8057 31.4219 14.5858 30.5082 14.1827 29.6503C13.8162 28.7925 13.3398 27.972 12.7534 27.1888C12.1671 26.3683 11.6174 25.6597 11.1043 25.0629C9.96821 27.2634 8.83213 29.0909 7.69604 30.5455C6.59661 32 5.38723 33.38 4.06791 34.6853C3.40825 35.3566 2.71194 35.6923 1.97898 35.6923C1.39262 35.6923 0.916196 35.4872 0.549717 35.0769C0.183239 34.6294 0 34.0886 0 33.4545C0 32.7086 0.256535 32.0186 0.769604 31.3846L1.48424 30.4895C3.49987 27.9534 5.02075 25.8648 6.04689 24.2238C6.6699 23.1422 7.40286 21.7063 8.24576 19.9161C9.08866 18.0886 9.91324 16.2051 10.7195 14.2657C11.4158 12.6247 12.8634 11.8042 15.0623 11.8042C16.0884 11.8042 16.803 11.8974 17.2062 12.0839C17.6093 12.2704 17.8108 12.5688 17.8108 12.979C17.8108 13.2028 17.7375 13.5571 17.591 14.042C17.4444 14.5268 17.2428 15.0117 16.9863 15.4965C16.3266 16.8392 15.9968 17.9767 15.9968 18.9091C15.9968 19.4685 16.18 20.0839 16.5465 20.7552C16.9496 21.4266 17.5543 22.2657 18.3606 23.2727C19.5333 24.8392 20.4128 26.1818 20.9992 27.3007C21.6222 28.3823 21.9337 29.5758 21.9337 30.8811C21.9337 31.2541 21.8971 31.7762 21.8238 32.4476C23.6195 31.7389 25.7268 29.8555 28.1455 26.7972C28.5853 26.2751 29.08 26.014 29.6298 26.014C30.1062 26.014 30.4727 26.2378 30.7292 26.6853C31.0224 27.1329 31.169 27.7483 31.169 28.5315C31.169 29.9487 30.8208 31.1049 30.1245 32C28.2921 34.3124 26.533 35.8974 24.8472 36.7552C23.1981 37.5758 21.1458 38.0233 18.6904 38.0979C17.2245 39.366 15.4837 40 13.4681 40Z" fill="#FE7949"/>
<path d="M54.7385 21.3147C55.215 21.3147 55.5814 21.5571 55.838 22.042C56.0945 22.5268 56.2228 23.1422 56.2228 23.8881C56.2228 25.6783 55.6914 26.7413 54.6286 27.0769C52.4297 27.8601 50.011 28.3077 47.3723 28.4196C46.676 31.5524 45.3017 34.0699 43.2494 35.972C41.1972 37.8368 38.87 38.7692 36.268 38.7692C34.0692 38.7692 32.1818 38.2284 30.6059 37.1469C29.0667 36.0653 27.894 34.6294 27.0878 32.8392C26.2815 31.0489 25.8784 29.1096 25.8784 27.021C25.8784 24.1865 26.4098 21.669 27.4726 19.4685C28.5353 17.2308 30.0013 15.4965 31.8703 14.2657C33.7393 12.9977 35.8099 12.3636 38.0821 12.3636C40.8673 12.3636 43.1028 13.352 44.7886 15.3287C46.5111 17.2681 47.5189 19.6737 47.8121 22.5455C49.5345 22.4336 51.5868 22.0606 53.9689 21.4266C54.2621 21.352 54.5186 21.3147 54.7385 21.3147ZM36.7078 32.8392C37.8805 32.8392 38.8884 32.3543 39.7313 31.3846C40.6108 30.4149 41.1972 29.0163 41.4903 27.1888C40.3543 26.4056 39.4747 25.38 38.8517 24.1119C38.2653 22.8438 37.9722 21.5012 37.9722 20.0839C37.9722 19.4872 38.0271 18.8904 38.1371 18.2937H37.8622C36.3963 18.2937 35.1686 19.021 34.1791 20.4755C33.2263 21.8928 32.7498 23.9068 32.7498 26.5175C32.7498 28.5688 33.1346 30.1352 33.9042 31.2168C34.7105 32.2984 35.645 32.8392 36.7078 32.8392Z" fill="#FE7949"/>
<path d="M62.0042 38.7692C58.4128 38.7692 55.6092 37.7436 53.5936 35.6923C51.6146 33.6037 50.6251 30.8625 50.6251 27.4685C50.6251 24.4476 51.2115 21.7995 52.3842 19.5245C53.5569 17.2494 55.0778 15.4965 56.9468 14.2657C58.8159 13.035 60.7765 12.4196 62.8288 12.4196C64.8445 12.4196 66.402 13.035 67.5014 14.2657C68.6375 15.4592 69.2055 17.007 69.2055 18.9091C69.2055 20.4755 68.8574 21.7995 68.1611 22.8811C67.5014 23.9627 66.6219 24.5035 65.5224 24.5035C64.8261 24.5035 64.2581 24.3357 63.8183 24C63.4152 23.6643 63.2136 23.1981 63.2136 22.6014C63.2136 22.3403 63.2503 22.042 63.3236 21.7063C63.3969 21.3706 63.4518 21.1282 63.4885 20.979C63.6717 20.4196 63.7633 19.8974 63.7633 19.4126C63.7633 18.9277 63.6351 18.5548 63.3785 18.2937C63.1587 18.0326 62.8288 17.9021 62.3891 17.9021C61.5462 17.9021 60.7582 18.2937 60.0253 19.0769C59.2923 19.8228 58.7059 20.8485 58.2662 22.1538C57.8264 23.4592 57.6065 24.8951 57.6065 26.4615C57.6065 30.7879 59.4572 32.951 63.1587 32.951C64.6612 32.951 66.2737 32.4476 67.9962 31.4406C69.7553 30.3963 71.4777 28.8485 73.1635 26.7972C73.6033 26.2751 74.098 26.014 74.6477 26.014C75.1242 26.014 75.4906 26.2378 75.7472 26.6853C76.0404 27.1329 76.187 27.7483 76.187 28.5315C76.187 29.9487 75.8388 31.1049 75.1425 32C73.42 34.1632 71.3494 35.8415 68.9307 37.035C66.5486 38.1911 64.2398 38.7692 62.0042 38.7692Z" fill="#FE7949"/>
<path d="M78.9446 8.72727C77.4053 8.72727 76.2509 8.37296 75.4813 7.66434C74.7117 6.91841 74.3269 5.89277 74.3269 4.58741C74.3269 3.28205 74.8217 2.20047 75.8112 1.34266C76.8373 0.447552 78.1017 0 79.6042 0C80.9602 0 82.0596 0.335664 82.9025 1.00699C83.7454 1.67832 84.1669 2.62937 84.1669 3.86014C84.1669 5.35198 83.6905 6.54545 82.7376 7.44056C81.7848 8.29837 80.5204 8.72727 78.9446 8.72727ZM78.5048 38.7692C76.1227 38.7692 74.3819 37.9114 73.2825 36.1958C72.2197 34.4802 71.6883 32.2051 71.6883 29.3706C71.6883 27.6923 71.8899 25.5478 72.293 22.9371C72.7328 20.289 73.2825 17.8275 73.9421 15.5524C74.272 14.359 74.7117 13.5385 75.2615 13.0909C75.8112 12.6434 76.6907 12.4196 77.9001 12.4196C79.7691 12.4196 80.7037 13.0536 80.7037 14.3217C80.7037 15.2541 80.3555 17.4172 79.6592 20.8112C78.7796 24.9138 78.3399 27.6923 78.3399 29.1469C78.3399 30.2657 78.4865 31.1235 78.7796 31.7203C79.0728 32.317 79.5676 32.6154 80.2639 32.6154C80.9235 32.6154 81.7481 32.1492 82.7376 31.2168C83.7271 30.2844 85.0464 28.8112 86.6956 26.7972C87.1353 26.2751 87.6301 26.014 88.1798 26.014C88.6562 26.014 89.0227 26.2378 89.2792 26.6853C89.5724 27.1329 89.719 27.7483 89.719 28.5315C89.719 30.0233 89.3709 31.1795 88.6746 32C85.0464 36.5128 81.6565 38.7692 78.5048 38.7692Z" fill="#FE7949"/>
<path d="M90.8786 38.7692C89.2294 38.7692 87.8735 38.0047 86.8107 36.4755C85.7845 34.9091 85.2715 32.9697 85.2715 30.6573C85.2715 27.8601 85.4547 25.3054 85.8212 22.993C86.1877 20.6434 86.7923 18.1632 87.6352 15.5524C88.0017 14.4336 88.5148 13.6317 89.1745 13.1469C89.8341 12.662 90.8786 12.4196 92.3078 12.4196C93.1141 12.4196 93.6638 12.5501 93.957 12.8112C94.2868 13.0723 94.4517 13.4639 94.4517 13.986C94.4517 14.2844 94.2502 15.2914 93.847 17.007C93.4806 18.3869 93.1874 19.6364 92.9675 20.7552C92.2345 24.6713 91.8681 27.2821 91.8681 28.5874C91.8681 29.3706 91.9597 29.9301 92.1429 30.2657C92.3262 30.5641 92.6194 30.7133 93.0225 30.7133C93.5722 30.7133 94.2502 30.1538 95.0564 29.035C95.8993 27.9161 96.7789 26.2191 97.6951 23.9441C98.6479 21.669 99.5641 18.8718 100.444 15.5524C100.737 14.4336 101.177 13.6317 101.763 13.1469C102.386 12.662 103.302 12.4196 104.512 12.4196C105.354 12.4196 105.941 12.5315 106.271 12.7552C106.6 12.9417 106.765 13.3147 106.765 13.8741C106.765 14.8065 106.307 17.3613 105.391 21.5385C104.365 26.3124 103.852 29.2587 103.852 30.3776C103.852 31.0862 103.999 31.6457 104.292 32.0559C104.585 32.4289 104.97 32.6154 105.446 32.6154C106.179 32.6154 107.04 32.1678 108.03 31.2727C109.056 30.3403 110.412 28.8485 112.098 26.7972C112.537 26.2751 113.032 26.014 113.582 26.014C114.058 26.014 114.425 26.2378 114.681 26.6853C114.975 27.1329 115.121 27.7483 115.121 28.5315C115.121 30.0233 114.773 31.1795 114.077 32C112.501 33.9767 110.797 35.5991 108.964 36.8671C107.169 38.1352 105.116 38.7692 102.807 38.7692C101.048 38.7692 99.7474 38.0793 98.9045 36.6993C98.0982 35.3193 97.6951 33.38 97.6951 30.8811C97.0721 33.4172 96.1375 35.3753 94.8915 36.7552C93.6455 38.0979 92.3078 38.7692 90.8786 38.7692Z" fill="#FE7949"/>
<path d="M114.567 38.7692C113.174 38.7692 112.185 38.0233 111.598 36.5315C111.048 35.0396 110.774 32.6527 110.774 29.3706C110.774 24.5221 111.452 19.9161 112.808 15.5524C113.137 14.4709 113.669 13.6876 114.402 13.2028C115.171 12.6807 116.234 12.4196 117.59 12.4196C118.323 12.4196 118.836 12.5128 119.129 12.6993C119.423 12.8858 119.569 13.2401 119.569 13.7622C119.569 14.359 119.294 15.7016 118.745 17.7902C118.378 19.2821 118.085 20.5874 117.865 21.7063C117.645 22.7879 117.462 24.1492 117.315 25.7902C118.305 22.8811 119.477 20.4196 120.833 18.4056C122.226 16.3916 123.637 14.8998 125.066 13.9301C126.532 12.9231 127.906 12.4196 129.189 12.4196C130.472 12.4196 131.37 12.7179 131.883 13.3147C132.432 13.9114 132.707 14.8252 132.707 16.0559C132.707 17.2494 132.359 19.4126 131.663 22.5455C131.37 23.8881 131.168 24.8951 131.058 25.5664C132.268 22.4336 133.605 19.8788 135.071 17.9021C136.574 15.9254 138.04 14.5268 139.469 13.7063C140.898 12.8485 142.217 12.4196 143.427 12.4196C144.6 12.4196 145.479 12.7366 146.065 13.3706C146.688 13.9674 147 14.8625 147 16.0559C147 17.0256 146.798 18.8531 146.395 21.5385C146.029 23.8135 145.736 25.9767 145.516 28.028C145.296 30.042 145.186 32.2984 145.186 34.7972C145.186 36.2145 144.893 37.2401 144.306 37.8741C143.757 38.4709 142.84 38.7692 141.558 38.7692C140.348 38.7692 139.469 38.4522 138.919 37.8182C138.369 37.1841 138.095 36.2331 138.095 34.965C138.095 33.4732 138.351 31.0117 138.864 27.5804C139.304 24.5967 139.524 22.6946 139.524 21.8741C139.524 21.2774 139.322 20.979 138.919 20.979C138.443 20.979 137.765 21.6131 136.885 22.8811C136.006 24.1119 135.126 25.7529 134.247 27.8042C133.367 29.8555 132.652 32.0186 132.103 34.2937C131.7 36.0839 131.223 37.2774 130.673 37.8741C130.16 38.4709 129.317 38.7692 128.145 38.7692C126.935 38.7692 126.019 38.1911 125.396 37.035C124.81 35.8415 124.517 34.4056 124.517 32.7273C124.517 31.31 124.7 29.2587 125.066 26.5734C125.359 24.1865 125.506 22.62 125.506 21.8741C125.506 21.2774 125.304 20.979 124.901 20.979C124.352 20.979 123.655 21.6503 122.812 22.993C121.97 24.3357 121.145 26.0513 120.339 28.1399C119.569 30.2284 118.946 32.2797 118.47 34.2937C118.067 36.0466 117.59 37.2401 117.04 37.8741C116.527 38.4709 115.703 38.7692 114.567 38.7692Z" fill="#FE7949"/>
</svg>
